<svg id="Layer_1" data-name="Layer 1" xmlns="http://www.w3.org/2000/svg" viewBox="0 0 572.6 572.6"><defs><style>.cls-1{fill:#402e7f;}.cls-2{fill:#fff;}.cls-3{fill:none;}</style></defs><circle class="cls-1" cx="286.3" cy="286.3" r="286.3"/><path class="cls-2" d="M308,337.46c-27.17-3.43-71.15-9-113.57-12.86l59-44.09s14.7-7.74,45.91-11.64C304.6,292.72,307.17,320.75,308,337.46Z"/><path class="cls-2" d="M556.64,315.58,350.07,470.21S301,441.3,209.72,426.84c-85.62-13.58-153.16,1.56-154.61,1.88l70.71-52.84c36.08,2.39,50.44-7.26,61-14.31,2.1-1.41,4.1-2.77,6.11-3.9,19.85-11.26,94.24-10.07,121.23-8.67l.46,0,.44,0,.42-.05a4.26,4.26,0,0,0,.51,0,7,7,0,0,0,.79,0,7.74,7.74,0,0,0,7.12-7.29l.55-7.67c1.21-16.9,2.92-40.93,4.28-67.19a413.26,413.26,0,0,1,69.05,4.6C488.77,284.61,556.64,315.58,556.64,315.58Z"/><path class="cls-2" d="M323.93,113.6C309.15,68.47,259.6,54.84,257.5,54.28l-3-.8L253,56.19c-11,19.33-2.76,46,4.84,63l-10.86-8.47-.86,7.1c-2.47,20.61,4.11,38.92,10.17,50.8L247,163.27l.12,7.14c.59,36.18,16.48,46,28.08,53.16,2.35,1.45,4.56,2.83,6.47,4.28,7.88,6,13.66,22.23,17.76,41,5.22,23.85,7.79,51.88,8.64,68.59.09,1.69.16,3.28.21,4.74l0,.44.12.43v0a.84.84,0,0,0,.08.27,7.71,7.71,0,0,0,7,5.57,4.26,4.26,0,0,0,.51,0,7,7,0,0,0,.79,0,7.74,7.74,0,0,0,7.12-7.29l.55-7.67c1.21-16.9,2.92-40.93,4.28-67.19C331.68,209.42,333,141.39,323.93,113.6Zm-7.59,219.8-.26,3.76c-.62-11.61-2.71-42-8.64-69.16-4.47-20.44-11.1-39.07-20.91-46.57-2.23-1.69-4.61-3.16-7.13-4.72-10.23-6.32-21.7-13.4-23.9-39.15l28.82,16.71-13-16.56c-.19-.25-17.87-23.06-17.67-51.48L285.33,151l-12-19.32c-.27-.44-26.05-42.37-14.76-68.59,10.77,3.68,46.32,18.23,57.73,53.05,8.78,26.8,7.34,94.13,4.34,150.94C319.22,293,317.53,316.69,316.34,333.4Z"/><path class="cls-3" d="M320.6,267.05c-1.38,25.92-3.07,49.64-4.26,66.35l-.26,3.76c-.62-11.61-2.71-42-8.64-69.16-4.47-20.44-11.1-39.07-20.91-46.57-2.23-1.69-4.61-3.16-7.13-4.72-10.23-6.32-21.7-13.4-23.9-39.15l28.82,16.71-13-16.56c-.19-.25-17.87-23.06-17.67-51.48L285.33,151l-12-19.32c-.27-.44-26.05-42.37-14.76-68.59,10.77,3.68,46.32,18.23,57.73,53.05C325,142.91,323.6,210.24,320.6,267.05Z"/><path class="cls-1" d="M563.14,359.4q1.11-4.14,2.07-8.36Z"/><path class="cls-1" d="M286.3,0C128.44,0,0,128.42,0,286.3A286.63,286.63,0,0,0,286.3,572.6c132.61,0,244.45-90.62,276.84-213.2l2.07-8.36a285.55,285.55,0,0,0,7.39-64.74C572.6,128.42,444.17,0,286.3,0ZM543.93,373.77C507.42,481,405.72,558.36,286.3,558.36A272.3,272.3,0,0,1,14.24,286.3c0-150,122-272.06,272.06-272.06S558.36,136.29,558.36,286.3a271.27,271.27,0,0,1-6.53,59.34A265.93,265.93,0,0,1,543.93,373.77Z"/></svg>