<svg id="Layer_1" data-name="Layer 1" xmlns="http://www.w3.org/2000/svg" viewBox="0 0 570.57 570.57"><defs><style>.cls-1{fill:#402e7f;}.cls-2{fill:#fff;}.cls-3{fill:none;}</style></defs><circle class="cls-1" cx="285.28" cy="285.28" r="285.28"/><path class="cls-2" d="M306.92,336.26c-27.07-3.42-70.89-8.93-113.16-12.82l58.81-43.93s14.64-7.71,45.75-11.59C303.52,291.68,306.08,319.61,306.92,336.26Z"/><path class="cls-2" d="M554.66,314.46,348.83,468.54S299.94,439.73,209,425.32c-85.32-13.53-152.62,1.55-154.07,1.88l70.46-52.65c36,2.37,50.26-7.24,60.73-14.26,2.1-1.41,4.09-2.77,6.09-3.89,19.79-11.22,93.91-10,120.81-8.64l.45,0,.44,0,.42-.05a4.18,4.18,0,0,0,.51,0,7.21,7.21,0,0,0,.79,0,7.71,7.71,0,0,0,7.09-7.26l.55-7.64c1.21-16.84,2.91-40.79,4.26-67a411.33,411.33,0,0,1,68.81,4.59C487,283.6,554.66,314.46,554.66,314.46Z"/><path class="cls-2" d="M322.78,113.19c-14.73-45-64.11-58.54-66.2-59.11l-3-.79L252.05,56c-10.94,19.26-2.75,45.81,4.83,62.82l-10.82-8.45-.86,7.08c-2.47,20.54,4.09,38.79,10.13,50.62l-9.26-5.37.12,7.12c.59,36.05,16.42,45.82,28,53,2.35,1.44,4.55,2.81,6.45,4.26,7.86,6,13.61,22.15,17.7,40.88,5.2,23.76,7.76,51.69,8.6,68.34.1,1.69.16,3.27.22,4.72v.44l.12.43v0a1.2,1.2,0,0,0,.08.27,7.67,7.67,0,0,0,6.95,5.55,4.18,4.18,0,0,0,.51,0,7.21,7.21,0,0,0,.79,0,7.71,7.71,0,0,0,7.09-7.26l.55-7.64c1.21-16.84,2.91-40.79,4.26-67C330.5,208.67,331.86,140.89,322.78,113.19Zm-7.56,219L315,336c-.61-11.57-2.69-41.85-8.6-68.93-4.46-20.36-11.06-38.93-20.84-46.4-2.22-1.68-4.6-3.15-7.1-4.7-10.19-6.3-21.63-13.35-23.81-39l28.71,16.65-13-16.51c-.18-.24-17.8-23-17.6-51.29l31.6,24.66-12-19.26c-.27-.44-25.95-42.21-14.71-68.34C268.34,66.5,303.77,81,315.14,115.7c8.74,26.71,7.31,93.79,4.32,150.41C318.09,291.93,316.4,315.56,315.22,332.21Z"/><path class="cls-3" d="M319.46,266.11c-1.37,25.82-3.06,49.45-4.24,66.1L315,336c-.61-11.57-2.69-41.85-8.6-68.93-4.46-20.36-11.06-38.93-20.84-46.4-2.22-1.68-4.6-3.15-7.1-4.7-10.19-6.3-21.63-13.35-23.81-39l28.71,16.65-13-16.51c-.18-.24-17.8-23-17.6-51.29l31.6,24.66-12-19.26c-.27-.44-25.95-42.21-14.71-68.34C268.34,66.5,303.77,81,315.14,115.7,323.88,142.41,322.45,209.49,319.46,266.11Z"/><path class="cls-2" d="M561.14,358.12c.74-2.75,1.42-5.53,2.06-8.33Z"/><path class="cls-2" d="M285.28,0C128,0,0,128,0,285.28A285.61,285.61,0,0,0,285.28,570.57c132.14,0,243.59-90.3,275.86-212.45l2.06-8.33a284.1,284.1,0,0,0,7.37-64.51C570.57,128,442.59,0,285.28,0ZM542,372.44C505.62,479.29,404.28,556.37,285.28,556.37A271.31,271.31,0,0,1,14.19,285.28C14.19,135.8,135.8,14.19,285.28,14.19S556.37,135.8,556.37,285.28a270.58,270.58,0,0,1-6.5,59.13A264,264,0,0,1,542,372.44Z"/></svg>