<svg id="Layer_1" data-name="Layer 1" xmlns="http://www.w3.org/2000/svg" viewBox="0 0 1924.6 572.6"><defs><style>.cls-1{fill:#fff;}.cls-2{fill:#402e7f;}.cls-3{fill:none;}</style></defs><rect class="cls-1" width="1924.6" height="572.6"/><path class="cls-2" d="M689.48,342.71a3.86,3.86,0,0,1-4-4V233.92a3.86,3.86,0,0,1,4-4h49.17q13.85,0,22.72,3.87a27.67,27.67,0,0,1,13.14,11,32.84,32.84,0,0,1,4.28,17A23.2,23.2,0,0,1,776.61,272a24.81,24.81,0,0,1-5.33,7.33,24.27,24.27,0,0,1-5.87,4.18,28.92,28.92,0,0,1,10.87,9.51A25.92,25.92,0,0,1,781,308.54c0,7.1-1.6,13.2-4.76,18.3a30.65,30.65,0,0,1-13.86,11.77q-9.1,4.11-22.33,4.1Zm24.82-68h21.12q6.62,0,9.92-3.39a11.94,11.94,0,0,0,3.3-8.7,11.49,11.49,0,0,0-3.3-8.46q-3.32-3.3-9.92-3.3H714.3Zm0,47.07h22.56q6.93,0,10.5-4a14,14,0,0,0-.1-18.69c-2.41-2.58-5.89-3.87-10.4-3.87H714.3Z"/><path class="cls-2" d="M836.81,344.33q-13.56,0-22.82-4.36a32,32,0,0,1-14.19-12.49,41.65,41.65,0,0,1-5.55-19.42c-.12-2.15-.17-4.59-.17-7.34s0-5.12.17-7.17q.64-11.43,5.8-19.51a33.8,33.8,0,0,1,14.43-12.41q9.27-4.35,22.33-4.35t22.48,4.35A33.8,33.8,0,0,1,873.72,274q5.16,8.07,5.8,19.51c.1,2.05.17,4.43.17,7.17s-.07,5.19-.17,7.34A41.65,41.65,0,0,1,874,327.48,31.85,31.85,0,0,1,859.77,340Q850.49,344.32,836.81,344.33Zm0-19.67c4.84,0,8.35-1.45,10.56-4.35s3.46-7.26,3.77-13.05q.17-2.43.17-6.46t-.17-6.44q-.46-8.55-3.77-13c-2.21-3-5.72-4.44-10.56-4.44s-8.23,1.48-10.49,4.44-3.48,7.28-3.69,13q-.18,2.4-.18,6.44t.18,6.46c.21,5.79,1.44,10.15,3.69,13.05S832.07,324.66,836.81,324.66Z"/><path class="cls-2" d="M935.12,344.33q-13.53,0-22.8-4.36a31.87,31.87,0,0,1-14.19-12.49,41.53,41.53,0,0,1-5.56-19.42c-.11-2.15-.16-4.59-.16-7.34s.05-5.12.16-7.17q.64-11.43,5.8-19.51a33.86,33.86,0,0,1,14.43-12.41q9.29-4.35,22.32-4.35,13.23,0,22.49,4.35A33.68,33.68,0,0,1,972,274q5.15,8.07,5.79,19.51c.11,2.05.17,4.43.17,7.17s-.06,5.19-.17,7.34a41.42,41.42,0,0,1-5.56,19.42A31.93,31.93,0,0,1,958.1,340Q948.82,344.32,935.12,344.33Zm0-19.67q7.26,0,10.56-4.35c2.21-2.9,3.48-7.26,3.79-13.05q.16-2.43.16-6.46t-.16-6.44q-.47-8.55-3.79-13t-10.56-4.44q-7.08,0-10.47,4.44t-3.71,13c-.12,1.6-.17,3.75-.17,6.44s.05,4.84.17,6.46c.23,5.79,1.46,10.15,3.71,13.05S930.4,324.66,935.12,324.66Z"/><path class="cls-2" d="M997.83,342.71a3.85,3.85,0,0,1-4-4V232.3a3.93,3.93,0,0,1,1.13-2.9,3.86,3.86,0,0,1,2.9-1.12h18.7a3.92,3.92,0,0,1,2.81,1.12,3.78,3.78,0,0,1,1.22,2.9v54l22.4-24.66a12.12,12.12,0,0,1,2.09-1.92,5.52,5.52,0,0,1,3.23-.82h21.6a3.59,3.59,0,0,1,3.56,3.56,3.76,3.76,0,0,1-.35,1.44,2.84,2.84,0,0,1-.95,1.29l-29,31.27,33,40.14a3.68,3.68,0,0,1,1.29,2.58,3.35,3.35,0,0,1-1,2.49,3.53,3.53,0,0,1-2.65,1h-22.09a5.63,5.63,0,0,1-3.54-.89A25.21,25.21,0,0,1,1046,340l-25.46-30.63v29.35a3.78,3.78,0,0,1-1.22,2.9,4,4,0,0,1-2.81,1.12Z"/><path class="cls-2" d="M1135.88,342.71a3.61,3.61,0,0,1-3.38-3.38,6,6,0,0,1,.16-1.46l37.88-103.48a6.5,6.5,0,0,1,2-3.14,6.15,6.15,0,0,1,4.28-1.37h23.85a6.16,6.16,0,0,1,4.27,1.37,6.55,6.55,0,0,1,2,3.14l37.71,103.48a3.21,3.21,0,0,1-.72,3.79,3.35,3.35,0,0,1-2.49,1h-19.82a4.94,4.94,0,0,1-3.64-1.2,6.19,6.19,0,0,1-1.53-2.18l-6.28-16.44h-43L1161,339.33a6.39,6.39,0,0,1-1.46,2.18c-.74.8-2,1.2-3.85,1.2Zm37.89-43h30l-15.16-42.55Z"/><path class="cls-2" d="M1260,342.71a4,4,0,0,1-2.91-1.12,3.93,3.93,0,0,1-1.13-2.9V262.92a4,4,0,0,1,1.13-2.82,3.85,3.85,0,0,1,2.91-1.21h18.54a3.82,3.82,0,0,1,2.9,1.21,4,4,0,0,1,1.13,2.82v6.45a30.33,30.33,0,0,1,10.38-7.74,32.85,32.85,0,0,1,13.63-2.74h7.1a4,4,0,0,1,2.81,1.13,3.8,3.8,0,0,1,1.22,2.9v16.61a3.86,3.86,0,0,1-1.22,2.82,3.8,3.8,0,0,1-2.81,1.2H1298q-6.6,0-10.23,3.64t-3.63,10.23v41.27a3.78,3.78,0,0,1-1.22,2.9,4.18,4.18,0,0,1-3,1.12Z"/><path class="cls-2" d="M1368,344.33q-13.54,0-22.8-4.36A31.87,31.87,0,0,1,1331,327.48a41.65,41.65,0,0,1-5.57-19.42c-.1-2.15-.15-4.59-.15-7.34s0-5.12.15-7.17q.66-11.43,5.8-19.51a33.91,33.91,0,0,1,14.43-12.41q9.28-4.35,22.33-4.35c8.81,0,16.32,1.45,22.48,4.35A33.68,33.68,0,0,1,1404.9,274q5.16,8.07,5.8,19.51c.1,2.05.17,4.43.17,7.17s-.07,5.19-.17,7.34a41.42,41.42,0,0,1-5.56,19.42A31.93,31.93,0,0,1,1391,340Q1381.69,344.32,1368,344.33Zm0-19.67c4.84,0,8.35-1.45,10.56-4.35s3.47-7.26,3.79-13.05c.1-1.62.16-3.77.16-6.46s-.06-4.84-.16-6.44q-.48-8.55-3.79-13c-2.21-3-5.72-4.44-10.56-4.44s-8.21,1.48-10.47,4.44-3.49,7.28-3.71,13c-.12,1.6-.17,3.75-.17,6.44s0,4.84.17,6.46c.22,5.79,1.45,10.15,3.71,13.05S1363.27,324.66,1368,324.66Z"/><path class="cls-2" d="M1457.45,344.33a31.85,31.85,0,0,1-16.36-4.2,28.39,28.39,0,0,1-11.2-12.33q-4-8.13-4-19.9v-45a3.87,3.87,0,0,1,4-4H1450a3.87,3.87,0,0,1,4,4v44q0,15.79,14.19,15.79c4.39,0,7.92-1.36,10.55-4.1s3.94-6.64,3.94-11.69v-44a4,4,0,0,1,1.13-2.9,3.93,3.93,0,0,1,2.9-1.13h20.15a3.87,3.87,0,0,1,4,4v75.77a3.93,3.93,0,0,1-1.13,2.9,4,4,0,0,1-2.91,1.12h-18.69a4,4,0,0,1-2.82-1.12,3.74,3.74,0,0,1-1.21-2.9v-6.13a26.59,26.59,0,0,1-10.89,8.79A38.85,38.85,0,0,1,1457.45,344.33Z"/><path class="cls-2" d="M1534,342.71a3.85,3.85,0,0,1-4-4V262.92a3.91,3.91,0,0,1,1.13-2.9,3.86,3.86,0,0,1,2.89-1.13h18.54a3.87,3.87,0,0,1,4,4V269a34.14,34.14,0,0,1,11-8.38,35.43,35.43,0,0,1,16-3.38,32,32,0,0,1,16.51,4.2,28.9,28.9,0,0,1,11.3,12.33q4.11,8.15,4.1,19.9v45a3.77,3.77,0,0,1-1.2,2.9,4.1,4.1,0,0,1-2.82,1.12h-20.32a4,4,0,0,1-2.81-1.12,3.77,3.77,0,0,1-1.21-2.9v-44c0-5.05-1.2-8.95-3.63-11.69s-6-4.11-10.72-4.11q-6.6,0-10.56,4.11t-4,11.69v44a3.8,3.8,0,0,1-1.2,2.9,4.11,4.11,0,0,1-2.84,1.12Z"/><path class="cls-2" d="M1664.74,344.33a36.79,36.79,0,0,1-13.93-2.51,28.3,28.3,0,0,1-10.66-7.41,34.28,34.28,0,0,1-6.84-11.92,55.49,55.49,0,0,1-2.73-16.05c-.12-2.15-.17-4.05-.17-5.72s0-3.51.17-5.56a53.51,53.51,0,0,1,2.73-15.63,36,36,0,0,1,6.77-11.93,28.78,28.78,0,0,1,10.65-7.66,35.59,35.59,0,0,1,14-2.66,33.11,33.11,0,0,1,13.86,2.66,31.64,31.64,0,0,1,9.83,6.85V232.3a4,4,0,0,1,1.12-2.9,4,4,0,0,1,2.92-1.12h19.66a4,4,0,0,1,2.82,1.12,3.77,3.77,0,0,1,1.21,2.9V338.69a3.77,3.77,0,0,1-1.21,2.9,4,4,0,0,1-2.82,1.12h-18.22a3.84,3.84,0,0,1-4-4v-5.16a30.81,30.81,0,0,1-10,7.73Q1673.77,344.32,1664.74,344.33Zm8.71-21.61c3.64,0,6.53-.77,8.63-2.33a14.23,14.23,0,0,0,4.67-6.05,23.26,23.26,0,0,0,1.68-8q.16-3.24.17-6.13t-.17-6a19.59,19.59,0,0,0-1.76-7.49,13.69,13.69,0,0,0-4.84-5.64,14.65,14.65,0,0,0-8.38-2.18c-3.55,0-6.38.75-8.46,2.26a11.91,11.91,0,0,0-4.44,6.13,34.27,34.27,0,0,0-1.61,8.53,52.2,52.2,0,0,0,0,10,34.08,34.08,0,0,0,1.61,8.54,11.91,11.91,0,0,0,4.44,6.13C1667.07,322,1669.9,322.72,1673.45,322.72Z"/><circle class="cls-2" cx="399.14" cy="286.3" r="190.7"/><path class="cls-1" d="M413.6,320.38c-18.09-2.29-47.38-6-75.64-8.57l39.31-29.37s9.79-5.15,30.58-7.75C411.33,290.58,413,309.25,413.6,320.38Z"/><path class="cls-1" d="M579.2,305.81l-137.58,103s-32.69-19.26-93.49-28.89c-57-9-102,1-103,1.25L292.25,346c24,1.59,33.59-4.84,40.59-9.53,1.4-.95,2.74-1.85,4.07-2.6,13.23-7.5,62.78-6.71,80.75-5.77H418l.29,0,.28,0a1.94,1.94,0,0,0,.34,0l.53,0a5.15,5.15,0,0,0,4.74-4.86l.37-5.1c.81-11.26,1.94-27.26,2.85-44.76a275.42,275.42,0,0,1,46,3.07C534,285.18,579.2,305.81,579.2,305.81Z"/><path class="cls-1" d="M424.21,171.27c-9.85-30.06-42.86-39.14-44.26-39.52l-2-.52-1,1.8c-7.31,12.87-1.83,30.62,3.23,42l-7.23-5.64-.58,4.73c-1.64,13.73,2.74,25.92,6.78,33.84l-6.19-3.6.08,4.76c.39,24.1,11,30.63,18.7,35.41,1.57,1,3,1.88,4.31,2.85,5.25,4,9.1,14.8,11.83,27.32,3.48,15.89,5.19,34.56,5.75,45.69.07,1.13.11,2.18.15,3.15v.3l.08.28v0a.37.37,0,0,0,0,.18,5.11,5.11,0,0,0,4.64,3.71,1.94,1.94,0,0,0,.34,0l.53,0a5.15,5.15,0,0,0,4.74-4.86l.37-5.1c.81-11.26,1.94-27.26,2.85-44.76C429.37,235.09,430.27,189.78,424.21,171.27Zm-5.06,146.4-.18,2.51c-.41-7.73-1.8-28-5.75-46.07-3-13.61-7.4-26-13.93-31-1.49-1.13-3.07-2.1-4.75-3.14-6.81-4.21-14.45-8.93-15.91-26.08L397.82,225l-8.68-11c-.13-.16-11.9-15.36-11.77-34.29l21.12,16.48-8-12.87c-.18-.29-17.35-28.22-9.83-45.68,7.17,2.44,30.86,12.14,38.46,35.33,5.84,17.85,4.88,62.7,2.88,100.54C421.07,290.74,419.94,306.54,419.15,317.67Z"/><path class="cls-3" d="M422,273.48c-.91,17.26-2,33.06-2.83,44.19l-.18,2.51c-.41-7.73-1.8-28-5.75-46.07-3-13.61-7.4-26-13.93-31-1.49-1.13-3.07-2.1-4.75-3.14-6.81-4.21-14.45-8.93-15.91-26.08L397.82,225l-8.68-11c-.13-.16-11.9-15.36-11.77-34.29l21.12,16.48-8-12.87c-.18-.29-17.35-28.22-9.83-45.68,7.17,2.44,30.86,12.14,38.46,35.33C424.94,190.79,424,235.64,422,273.48Z"/><path class="cls-2" d="M583.54,335q.74-2.76,1.37-5.57Z"/><path class="cls-2" d="M399.14,95.6c-105.15,0-190.7,85.54-190.7,190.7A189.65,189.65,0,0,0,241.15,393a192.3,192.3,0,0,0,14.08,18.29A190.28,190.28,0,0,0,399.14,477c88.33,0,162.82-60.36,184.4-142l1.37-5.57a189.83,189.83,0,0,0,4.93-43.12C589.84,181.14,504.29,95.6,399.14,95.6Zm171.6,249c-24.32,71.43-92.06,123-171.6,123A181.35,181.35,0,0,1,217.93,286.3c0-99.92,81.29-181.21,181.21-181.21S580.35,186.38,580.35,286.3A181.46,181.46,0,0,1,576,325.83,178.94,178.94,0,0,1,570.74,344.56Z"/></svg>