<svg id="Layer_1" data-name="Layer 1" xmlns="http://www.w3.org/2000/svg" viewBox="0 0 1918.88 570.57"><defs><style>.cls-1{fill:#402e7f;}.cls-2{fill:#fff;}.cls-3{fill:none;}</style></defs><rect class="cls-1" x="1.12" width="1917.76" height="570.57"/><path class="cls-2" d="M705.33,341.5a3.85,3.85,0,0,1-4-4V233.08a3.84,3.84,0,0,1,4-4h49q13.8,0,22.64,3.85a27.59,27.59,0,0,1,13.09,11,32.61,32.61,0,0,1,4.26,16.94,23,23,0,0,1-2.17,10.21,24.77,24.77,0,0,1-5.3,7.31,24.25,24.25,0,0,1-5.86,4.17A28.79,28.79,0,0,1,791.82,292a25.8,25.8,0,0,1,4.74,15.43q0,10.6-4.74,18.23A30.69,30.69,0,0,1,778,337.41q-9.06,4.09-22.25,4.09Zm24.73-67.79h21q6.58,0,9.88-3.37a11.88,11.88,0,0,0,3.3-8.67,11.42,11.42,0,0,0-3.3-8.43q-3.29-3.3-9.88-3.29h-21Zm0,46.91h22.48q6.9,0,10.46-4a13.48,13.48,0,0,0,3.53-9.15A13.29,13.29,0,0,0,762.9,298q-3.6-3.87-10.36-3.86H730.06Z"/><path class="cls-2" d="M852.13,343.1q-13.51,0-22.73-4.34a31.77,31.77,0,0,1-14.15-12.44A41.62,41.62,0,0,1,809.73,307c-.12-2.14-.17-4.57-.17-7.3s.05-5.12.17-7.15q.64-11.4,5.77-19.44a33.63,33.63,0,0,1,14.38-12.37q9.24-4.32,22.25-4.34t22.4,4.34a33.63,33.63,0,0,1,14.38,12.37q5.13,8,5.78,19.44c.1,2,.17,4.41.17,7.15s-.07,5.16-.17,7.3a41.51,41.51,0,0,1-5.54,19.36A31.77,31.77,0,0,1,875,338.76Q865.77,343.1,852.13,343.1Zm0-19.59q7.23,0,10.52-4.34t3.76-13q.17-2.42.17-6.44t-.17-6.41c-.31-5.69-1.56-10-3.76-12.94S857,276,852.13,276s-8.2,1.47-10.45,4.42-3.47,7.25-3.68,12.94c-.12,1.59-.17,3.73-.17,6.41s0,4.83.17,6.44q.32,8.65,3.68,13T852.13,323.51Z"/><path class="cls-2" d="M950.1,343.1q-13.5,0-22.72-4.34a31.64,31.64,0,0,1-14.14-12.44A41.4,41.4,0,0,1,907.69,307q-.15-3.21-.15-7.3t.15-7.15q.64-11.4,5.78-19.44a33.75,33.75,0,0,1,14.38-12.37q9.25-4.32,22.25-4.34,13.17,0,22.4,4.34a33.52,33.52,0,0,1,14.38,12.37q5.13,8,5.78,19.44c.1,2,.17,4.41.17,7.15s-.07,5.16-.17,7.3a41.28,41.28,0,0,1-5.55,19.36A31.72,31.72,0,0,1,973,338.76Q963.75,343.1,950.1,343.1Zm0-19.59q7.23,0,10.52-4.34c2.19-2.89,3.46-7.23,3.78-13q.15-2.42.15-6.44t-.15-6.41c-.32-5.69-1.59-10-3.78-12.94S954.92,276,950.1,276s-8.19,1.47-10.43,4.42-3.48,7.25-3.7,12.94c-.12,1.59-.17,3.73-.17,6.41s.05,4.83.17,6.44q.33,8.65,3.7,13T950.1,323.51Z"/><path class="cls-2" d="M1012.58,341.5a3.87,3.87,0,0,1-4-4v-106a3.87,3.87,0,0,1,4-4h18.63a3.91,3.91,0,0,1,2.8,1.13,3.75,3.75,0,0,1,1.22,2.89v53.8l22.32-24.58a12.47,12.47,0,0,1,2.08-1.92,5.57,5.57,0,0,1,3.22-.81h21.53a3.42,3.42,0,0,1,2.49,1,3.46,3.46,0,0,1,1.05,2.49,3.88,3.88,0,0,1-.34,1.44,2.77,2.77,0,0,1-1,1.28l-28.91,31.16,32.93,40a3.68,3.68,0,0,1,1.28,2.58,3.34,3.34,0,0,1-1.05,2.48,3.51,3.51,0,0,1-2.64,1.05h-22a5.66,5.66,0,0,1-3.53-.89,23.55,23.55,0,0,1-2.09-1.85l-25.37-30.52v29.24a3.75,3.75,0,0,1-1.22,2.89,4,4,0,0,1-2.8,1.13Z"/><path class="cls-2" d="M1150.14,341.5a3.61,3.61,0,0,1-3.37-3.38,5.91,5.91,0,0,1,.16-1.45l37.75-103.11a6.38,6.38,0,0,1,2-3.13,6.16,6.16,0,0,1,4.26-1.37h23.76a6.21,6.21,0,0,1,4.27,1.37,6.5,6.5,0,0,1,2,3.13l37.58,103.11a3.15,3.15,0,0,1,.32,1.45,3.21,3.21,0,0,1-1,2.33,3.36,3.36,0,0,1-2.49,1.05H1235.6a4.91,4.91,0,0,1-3.62-1.21,6.08,6.08,0,0,1-1.53-2.17l-6.26-16.37h-42.88l-6.11,16.37a6.37,6.37,0,0,1-1.45,2.17,5.1,5.1,0,0,1-3.84,1.21Zm37.75-42.89h29.88l-15.11-42.4Z"/><path class="cls-2" d="M1273.82,341.5a3.85,3.85,0,0,1-4-4V262a4.07,4.07,0,0,1,1.12-2.81,3.87,3.87,0,0,1,2.9-1.2h18.47a3.83,3.83,0,0,1,2.89,1.2,4,4,0,0,1,1.12,2.81v6.44a30.3,30.3,0,0,1,10.36-7.72,32.74,32.74,0,0,1,13.58-2.73h7.07a4,4,0,0,1,2.8,1.13,3.75,3.75,0,0,1,1.21,2.88v16.55a4.14,4.14,0,0,1-4,4h-15.58q-6.59,0-10.2,3.62t-3.62,10.19v41.12a3.74,3.74,0,0,1-1.21,2.89,4.14,4.14,0,0,1-3,1.13Z"/><path class="cls-2" d="M1381.42,343.1q-13.49,0-22.71-4.34a31.72,31.72,0,0,1-14.15-12.44A41.51,41.51,0,0,1,1339,307c-.1-2.14-.16-4.57-.16-7.3s.06-5.12.16-7.15q.64-11.4,5.78-19.44a33.69,33.69,0,0,1,14.38-12.37q9.25-4.32,22.24-4.34,13.18,0,22.41,4.34a33.52,33.52,0,0,1,14.38,12.37q5.13,8,5.77,19.44.16,3,.17,7.15T1424,307a41.28,41.28,0,0,1-5.54,19.36,31.75,31.75,0,0,1-14.12,12.44Q1395.07,343.1,1381.42,343.1Zm0-19.59c4.83,0,8.33-1.45,10.53-4.34s3.46-7.23,3.77-13q.16-2.42.16-6.44t-.16-6.41c-.31-5.69-1.58-10-3.77-12.94s-5.7-4.42-10.53-4.42-8.18,1.47-10.43,4.42-3.47,7.25-3.7,12.94q-.16,2.39-.17,6.41t.17,6.44c.23,5.77,1.45,10.11,3.7,13S1376.72,323.51,1381.42,323.51Z"/><path class="cls-2" d="M1470.57,343.1a31.62,31.62,0,0,1-16.3-4.18,28.26,28.26,0,0,1-11.16-12.29c-2.68-5.39-4-12-4-19.82V262a3.87,3.87,0,0,1,4-4h20.07a3.87,3.87,0,0,1,4,4v43.86q0,15.74,14.14,15.74,6.57,0,10.51-4.1c2.63-2.73,3.93-6.61,3.93-11.64V262a3.87,3.87,0,0,1,4-4h20.07a3.87,3.87,0,0,1,4,4v75.5a3.87,3.87,0,0,1-4,4h-18.62a4,4,0,0,1-2.81-1.13,3.74,3.74,0,0,1-1.21-2.89v-6.1a26.42,26.42,0,0,1-10.85,8.76A38.76,38.76,0,0,1,1470.57,343.1Z"/><path class="cls-2" d="M1546.85,341.5a3.87,3.87,0,0,1-4-4V262a3.87,3.87,0,0,1,4-4h18.48a3.87,3.87,0,0,1,4,4v6.11a33.51,33.51,0,0,1,10.91-8.35,35.17,35.17,0,0,1,15.91-3.38,31.89,31.89,0,0,1,16.45,4.19,28.74,28.74,0,0,1,11.26,12.28Q1628,281,1628,292.66v44.82a3.73,3.73,0,0,1-1.2,2.89,4,4,0,0,1-2.81,1.13h-20.25a4,4,0,0,1-2.8-1.13,3.73,3.73,0,0,1-1.2-2.89V293.63q0-7.54-3.62-11.65c-2.42-2.73-6-4.09-10.68-4.09q-6.59,0-10.52,4.09T1571,293.63v43.85a3.76,3.76,0,0,1-1.2,2.89,4,4,0,0,1-2.82,1.13Z"/><path class="cls-2" d="M1677.12,343.1a36.76,36.76,0,0,1-13.88-2.49,28.3,28.3,0,0,1-10.62-7.39,34.3,34.3,0,0,1-6.82-11.88,55.08,55.08,0,0,1-2.72-16c-.12-2.14-.17-4-.17-5.69s0-3.51.17-5.55a53.29,53.29,0,0,1,2.72-15.58,36.12,36.12,0,0,1,6.74-11.88,28.68,28.68,0,0,1,10.62-7.63,35.38,35.38,0,0,1,14-2.66,32.84,32.84,0,0,1,13.81,2.66,31.43,31.43,0,0,1,9.79,6.82V231.48a4,4,0,0,1,1.13-2.89,3.91,3.91,0,0,1,2.9-1.13h19.59a4,4,0,0,1,2.81,1.13,3.74,3.74,0,0,1,1.21,2.89v106a3.74,3.74,0,0,1-1.21,2.89,4,4,0,0,1-2.81,1.13h-18.15a3.85,3.85,0,0,1-4-4v-5.13a30.81,30.81,0,0,1-10,7.7Q1686.11,343.1,1677.12,343.1Zm8.68-21.52c3.63,0,6.51-.78,8.6-2.33a14.11,14.11,0,0,0,4.65-6,22.76,22.76,0,0,0,1.67-8c.12-2.15.17-4.18.17-6.11s-.05-3.9-.17-5.94a19.26,19.26,0,0,0-1.75-7.47,13.65,13.65,0,0,0-4.82-5.62,14.62,14.62,0,0,0-8.35-2.17c-3.53,0-6.36.75-8.43,2.25a11.84,11.84,0,0,0-4.42,6.1,34.19,34.19,0,0,0-1.61,8.51,53.45,53.45,0,0,0,0,10,33.76,33.76,0,0,0,1.61,8.51,11.78,11.78,0,0,0,4.42,6.11C1679.44,320.83,1682.27,321.58,1685.8,321.58Z"/><path class="cls-2" d="M413.25,319.24c-18-2.28-47.22-5.95-75.37-8.54l39.17-29.26s9.75-5.14,30.47-7.72C411,289.55,412.69,308.15,413.25,319.24Z"/><path class="cls-2" d="M578.27,304.72,441.17,407.35S408.6,388.16,348,378.56c-56.82-9-101.65,1-102.62,1.25l46.94-35.07c23.95,1.58,33.48-4.82,40.45-9.5,1.39-.94,2.72-1.84,4.05-2.59,13.18-7.47,62.56-6.68,80.47-5.75l.3,0,.3,0,.27,0h.34l.53,0a5.13,5.13,0,0,0,4.72-4.84l.37-5.09c.8-11.22,1.94-27.17,2.84-44.6a274.45,274.45,0,0,1,45.83,3.06C533.22,284.16,578.27,304.72,578.27,304.72Z"/><path class="cls-2" d="M423.82,170.66c-9.82-29.95-42.7-39-44.1-39.37l-2-.53-1,1.79c-7.28,12.84-1.83,30.52,3.22,41.85l-7.21-5.63-.57,4.72c-1.64,13.68,2.73,25.83,6.75,33.72l-6.17-3.58.08,4.74c.4,24,10.94,30.52,18.64,35.28a50.69,50.69,0,0,1,4.29,2.84c5.24,4,9.07,14.75,11.79,27.23,3.47,15.83,5.17,34.43,5.73,45.52.07,1.12.11,2.18.15,3.14v.3l.08.28s0,0,0,0a.37.37,0,0,0,.05.18,5.1,5.1,0,0,0,4.62,3.7h.34l.53,0a5.13,5.13,0,0,0,4.72-4.84l.37-5.09c.8-11.22,1.94-27.17,2.84-44.6C429,234.25,429.86,189.11,423.82,170.66Zm-5,145.88-.18,2.5c-.41-7.7-1.79-27.87-5.73-45.91-3-13.56-7.37-25.93-13.88-30.9-1.48-1.13-3.06-2.1-4.73-3.14-6.79-4.19-14.4-8.89-15.86-26l19.13,11.09-8.65-11c-.13-.16-11.86-15.31-11.73-34.17l21.05,16.42-8-12.82c-.18-.29-17.29-28.12-9.8-45.52,7.14,2.44,30.75,12.1,38.32,35.21,5.82,17.79,4.86,62.47,2.87,100.18C420.69,289.71,419.57,305.45,418.78,316.54Z"/><path class="cls-3" d="M421.6,272.51c-.91,17.2-2,32.94-2.82,44l-.18,2.5c-.41-7.7-1.79-27.87-5.73-45.91-3-13.56-7.37-25.93-13.88-30.9-1.48-1.13-3.06-2.1-4.73-3.14-6.79-4.19-14.4-8.89-15.86-26l19.13,11.09-8.65-11c-.13-.16-11.86-15.31-11.73-34.17l21.05,16.42-8-12.82c-.18-.29-17.29-28.12-9.8-45.52,7.14,2.44,30.75,12.1,38.32,35.21C424.55,190.12,423.59,234.8,421.6,272.51Z"/><path class="cls-2" d="M582.59,333.8c.49-1.83.94-3.69,1.37-5.55Z"/><path class="cls-2" d="M398.84,95.26c-104.78,0-190,85.24-190,190a190.26,190.26,0,0,0,190,190c88,0,162.25-60.15,183.75-141.51l1.37-5.55a189.64,189.64,0,0,0,4.9-43C588.86,180.5,503.62,95.26,398.84,95.26Zm171,248.08c-24.23,71.17-91.73,122.51-171,122.51A180.72,180.72,0,0,1,218.27,285.28c0-99.56,81-180.56,180.57-180.56s180.57,81,180.57,180.56a180.18,180.18,0,0,1-4.33,39.39A177.78,177.78,0,0,1,569.83,343.34Z"/></svg>